<!DOCTYPE svg PUBLIC "-//W3C//DTD SVG 1.1//EN" "http://www.w3.org/Graphics/SVG/1.1/DTD/svg11.dtd">
<!-- Uploaded to: SVG Repo, www.svgrepo.com, Transformed by: SVG Repo Mixer Tools -->
<svg width="800px" height="800px" viewBox="0 0 1024 1024" class="icon" version="1.1" xmlns="http://www.w3.org/2000/svg" fill="#000000">
<g id="SVGRepo_bgCarrier" stroke-width="0"/>
<g id="SVGRepo_tracerCarrier" stroke-linecap="round" stroke-linejoin="round"/>
<g id="SVGRepo_iconCarrier">
<path d="M118.270018 322.592478V828.459405c0 23.246292 22.388277 38.379318 45.634569 38.379317h38.324027v-589.757947h-38.324027c-23.245269 0-45.634569 22.26541-45.634569 45.511703z m56.313693 517.625226h-10.679124c-7.746716 0-16.96578-4.008511-16.96578-11.758299V322.592478c0-7.749788 9.219063-16.842914 16.96578-16.842914h10.679124v534.46814zM754.082327 185.954981h-117.726335v26.621018h117.726335c7.746716 0 11.283216 10.928952 11.283216 18.67874V793.329899c0 7.749788-3.5365 10.027933-11.283216 10.027933H276.320028c-7.746716 0-18.800582-2.279169-18.800582-10.027933V231.255763c0-7.749788 11.05489-18.67874 18.800582-18.67874h110.208969v-26.621018H276.320028c-23.246292 0-46.445486 22.05449-46.445486 45.299758v688.54138c0 23.246292 23.200218 40.216168 46.445486 40.216168h477.763323c23.246292 0 38.92812-16.969875 38.92812-40.216168V231.255763c-0.001024-23.246292-15.682852-45.300782-38.929144-45.300782z m0 745.388517H276.320028c-7.746716 0-18.800582-3.797591-18.800582-11.547379v-23.537076c7.167197 1.563473 13.867503-0.751532 18.800582-0.751532h477.763323c4.933079 0 11.283216 2.315005 11.283216 0.751532v23.537076c-0.001024 7.749788-3.537524 11.547379-11.28424 11.547379z m0-64.504776H276.320028c-7.746716 0-18.800582-2.525925-18.800582-10.275713V833.025933c7.167197 1.563473 13.867503-0.999312 18.800582-0.999312h477.763323c4.933079 0 11.283216 2.562785 11.283216 0.999312v23.537076c-0.001024 7.749788-3.537524 10.275713-11.28424 10.275713zM866.497768 277.080775h-45.842417v589.757947h45.842417c23.246292 0 38.116179-15.134049 38.116179-38.379317V322.592478c0-23.246292-14.869887-45.511703-38.116179-45.511703zM876.969043 828.459405c0 7.749788-2.725583 11.758299-10.471275 11.758299h-19.221399v-534.46814h19.221399c7.746716 0 10.471275 9.093126 10.471275 16.842914V828.459405z" fill="#262626"/>
<path d="M301.545491 356.94383h224.230886v26.621019h-224.230886zM301.545491 571.959749h224.230886v28.668789h-224.230886zM301.545491 503.359432h224.230886v29.692674h-224.230886zM301.545491 431.687459h224.230886v29.692674h-224.230886z" fill="#262626"/>
<path d="M724.41013 734.016222c0 7.761051-6.290751 14.051802-14.051802 14.051802H315.597293c-7.761051 0-14.051802-6.290751-14.051802-14.051802v-64.046075c0-7.761051 6.290751-14.051802 14.051802-14.051802h394.761035c7.761051 0 14.051802 6.290751 14.051802 14.051802v64.046075zM724.41013 589.648391c0 7.761051-6.290751 14.051802-14.051802 14.051803H582.831363c-7.761051 0-14.051802-6.290751-14.051802-14.051803V370.995632c0-7.761051 6.290751-14.051802 14.051802-14.051802h127.526965c7.761051 0 14.051802 6.290751 14.051802 14.051802V589.648391z" fill="#E0E0E0"/>
<path d="M636.355992 268.889692h-249.828019V160.996752c0-15.496504 14.810501-31.35444 30.310077-31.35444h40.33801v-10.80199c0-30.991985 24.809765-56.207209 55.80175-56.207209s55.80175 25.215224 55.801751 56.207209v10.800966h44.784744c15.499576 0 22.791687 15.857936 22.791687 31.35444v107.893964z m-222.183115-27.644903h195.562097v-82.934712h-69.624202V118.840322c0-15.496504-12.145328-28.103604-27.644904-28.103605s-27.644904 12.6071-27.644904 28.103605v39.469755h-70.648087v82.934712z" fill="#FF4C48"/>
</g>
</svg>